<svg width="40" height="40" viewBox="0 0 40 40" fill="none" xmlns="http://www.w3.org/2000/svg">
<path fill-rule="evenodd" clip-rule="evenodd" d="M20 40C31.0457 40 40 31.0457 40 20C40 8.9543 31.0457 0 20 0C8.9543 0 0 8.9543 0 20C0 31.0457 8.9543 40 20 40ZM26.1434 28.125H26.2497C27.2852 28.125 28.1247 27.2855 28.1247 26.25V22.95C28.1283 22.4424 27.8245 21.9829 27.3559 21.7875L24.9997 20.8438C24.5371 20.6492 24.0031 20.7501 23.6434 21.1L22.2872 22.4438C19.8668 22.0131 17.9739 20.1152 17.5497 17.6938L18.8809 16.35C19.2347 15.9957 19.3429 15.4645 19.1559 15L18.2059 12.6625C18.0164 12.1866 17.5557 11.8745 17.0434 11.875H13.7497C13.2264 11.8735 12.7264 12.0906 12.3703 12.474C12.0142 12.8574 11.8345 13.3721 11.8747 13.8938C12.1184 17.0563 13.8622 27.4188 26.1434 28.125Z" fill="#AC835E"/>
</svg>
