<svg width="32" height="32" viewBox="0 0 32 32" fill="none" xmlns="http://www.w3.org/2000/svg">
<path fill-rule="evenodd" clip-rule="evenodd" d="M19.6994 12.2875H22.1409V9.84387H19.6994V12.2856V12.2875ZM24.6092 14.7549H17.2312V7.37747H22.1419V2.46739H17.2312V0H24.6092V7.37747H31.9872V14.7549H29.5199V9.84486H24.6092V14.7549ZM27.2423 0.00296562H32V4.7608H29.5407V2.46146H27.2423V0.00296562ZM9.85907 22.1561H12.3016V19.7144H9.85907V22.1561ZM7.39085 17.2461H14.7689V24.6235H9.85907V29.5326H14.7689V32H7.39085V24.6245H0.0128404V17.247H2.48205V22.1571H7.39085V17.247V17.2461ZM4.75867 31.997H0V27.2402H2.45934V29.5385H4.75867V31.997ZM19.6994 22.1561H22.1409V19.7144H19.6994V22.1561ZM17.2312 17.2461H24.6092V22.1561H29.5199V17.2461H31.9872V24.6235H24.6092V32H17.2312V29.5326H22.1419V24.6245H17.2312V17.247V17.2461ZM27.2423 31.997V29.5385H29.5407V27.2402H32V31.997H27.2423ZM9.85907 12.2875H12.3016V9.84585H9.85907V12.2875ZM14.7689 14.7559H7.39085V9.84486H2.48205V14.7549H0.0128404V7.37747H7.39085V0H14.7689V2.46739H9.85907V7.37747H14.7689V14.7549V14.7559ZM4.75867 0.00296562V2.46146H2.45934V4.7608H0V0.00296562H4.75867Z" fill="#FFD2AA"/>
</svg>
